<svg width="165" height="335" viewBox="0 0 165 335" fill="none" xmlns="http://www.w3.org/2000/svg">
<path d="M24.6121 0.653931H39.7694C39.0723 2.29657 38.8062 4.07876 38.9946 5.84353C39.1829 7.60829 39.8198 9.30147 40.8493 10.7739C41.8788 12.2463 43.2691 13.4528 44.8979 14.287C46.5267 15.1212 48.344 15.5576 50.1896 15.5578H116.712C118.558 15.5576 120.375 15.1212 122.004 14.287C123.633 13.4528 125.023 12.2463 126.052 10.7739C127.082 9.30146 127.719 7.6083 127.907 5.84354C128.096 4.07877 127.829 2.29657 127.132 0.653931H141.289C147.572 0.653925 153.598 3.05292 158.04 7.32317C162.483 11.5934 164.979 17.3851 164.979 23.4242V312.018C164.979 315.008 164.366 317.969 163.175 320.732C161.985 323.495 160.24 326.005 158.04 328.119C155.84 330.234 153.229 331.911 150.355 333.055C147.481 334.2 144.4 334.789 141.289 334.789H24.6121C18.3294 334.789 12.304 332.39 7.86137 328.119C3.41879 323.849 0.922958 318.057 0.922928 312.018V23.4242C0.922928 20.434 1.53568 17.473 2.72617 14.7104C3.91666 11.9478 5.66159 9.43761 7.86133 7.32319C10.0611 5.20877 12.6725 3.53153 15.5466 2.38721C18.4207 1.2429 21.5012 0.65393 24.6121 0.653931H24.6121ZM27.1586 134.535C27.1634 136.097 27.8114 137.595 28.9611 138.7C30.1107 139.805 31.6687 140.428 33.2946 140.433H62.9518C64.5777 140.428 66.1356 139.805 67.2853 138.7C68.435 137.595 69.083 136.097 69.0878 134.535V133.06C69.083 131.497 68.435 130 67.2853 128.895C66.1356 127.789 64.5777 127.167 62.9518 127.162H33.2946C31.6687 127.167 30.1107 127.789 28.9611 128.895C27.8114 130 27.1634 131.497 27.1586 133.06V134.535ZM23.835 108.485C23.8397 110.048 24.4877 111.545 25.6374 112.651C26.7871 113.756 28.345 114.379 29.9709 114.383H136.328C137.954 114.379 139.512 113.756 140.661 112.651C141.811 111.545 142.459 110.048 142.464 108.485V107.011C142.459 105.448 141.811 103.95 140.661 102.845C139.512 101.74 137.954 101.117 136.328 101.113H29.9709C28.345 101.117 26.7871 101.74 25.6374 102.845C24.4877 103.95 23.8397 105.448 23.835 107.011V108.485ZM23.835 82.4357C23.8397 83.9986 24.4877 85.4961 25.6374 86.6012C26.7871 87.7063 28.345 88.3291 29.9709 88.3337H136.328C137.954 88.3291 139.512 87.7063 140.661 86.6012C141.811 85.4961 142.459 83.9986 142.464 82.4357V80.9612C142.459 79.3984 141.811 77.9009 140.661 76.7958C139.512 75.6907 137.954 75.0678 136.328 75.0632H29.9709C28.345 75.0678 26.7871 75.6907 25.6374 76.7958C24.4877 77.9009 23.8397 79.3984 23.835 80.9612V82.4357ZM23.835 56.3863C23.8397 57.9492 24.4877 59.4467 25.6374 60.5518C26.7871 61.6569 28.345 62.2797 29.9709 62.2843H136.328C137.954 62.2797 139.512 61.6569 140.661 60.5518C141.811 59.4467 142.459 57.9492 142.464 56.3863V54.9118C142.459 53.349 141.811 51.8515 140.661 50.7464C139.512 49.6413 137.954 49.0184 136.328 49.0139H29.9709C28.345 49.0184 26.7871 49.6413 25.6374 50.7464C24.4877 51.8515 23.8397 53.349 23.835 54.9118V56.3863Z" fill="white"/>
</svg>
